<svg id="Layer_1" data-name="Layer 1" xmlns="http://www.w3.org/2000/svg" width="137.65" height="49.47" viewBox="0 0 137.65 49.47"><defs><style>.cls-1{fill:#667d5a;}</style></defs><path class="cls-1" d="M3.59,17.81V17.7A.67.67,0,0,1,4.33,17h.72a.67.67,0,0,1,.74.74V18c0,1.06.47,1.44,1.21,1.44S8.22,19,8.22,17.93s-.47-2-2-3.35C4.27,12.86,3.63,11.65,3.63,10c0-2.34,1.21-3.7,3.48-3.7s3.4,1.4,3.4,3.61a.67.67,0,0,1-.74.75H9a.67.67,0,0,1-.74-.75v0c0-1.06-.42-1.46-1.17-1.46S6,8.78,6,9.8,6.45,11.67,8,13c2,1.72,2.57,2.91,2.57,4.75,0,2.43-1.23,3.78-3.52,3.78S3.59,20.19,3.59,17.81Z"/><path class="cls-1" d="M13.72,20.59v-12H12a.69.69,0,0,1-.75-.75V7.21A.69.69,0,0,1,12,6.46h5.73a.69.69,0,0,1,.75.75v.63a.69.69,0,0,1-.75.75h-1.7v12a.67.67,0,0,1-.74.74h-.85A.67.67,0,0,1,13.72,20.59Z"/><path class="cls-1" d="M18.09,20.69a1,1,0,0,1,0-.19L20.34,7.14a.73.73,0,0,1,.79-.68h1.81a.72.72,0,0,1,.78.68L26,20.5a1,1,0,0,1,0,.19c0,.41-.25.64-.7.64h-.83a.72.72,0,0,1-.8-.68l-.32-2.27v0H20.58l-.32,2.23a.72.72,0,0,1-.81.68h-.66A.61.61,0,0,1,18.09,20.69ZM23,16.4,22,9.06h0L20.85,16.4Z"/><path class="cls-1" d="M27.16,20.59V7.21a.69.69,0,0,1,.75-.75h2.71c2.43,0,3.47,1.13,3.47,3.42v.92c0,1.53-.49,2.5-1.53,2.93v0c1.17.36,1.55,1.47,1.55,3.14v2.62a5,5,0,0,0,.06,1,1.7,1.7,0,0,1,0,.28c0,.34-.23.53-.63.53h-.94a.7.7,0,0,1-.8-.64,6.36,6.36,0,0,1-.07-1.18V16.79c0-1.38-.4-1.83-1.46-1.83H29.5v5.63a.68.68,0,0,1-.74.74h-.85A.68.68,0,0,1,27.16,20.59Zm3.19-7.75c.87,0,1.4-.39,1.4-1.58V10.12c0-1.06-.36-1.53-1.19-1.53H29.5v4.25Z"/><path class="cls-1" d="M37.51,20.59v-12h-1.7a.69.69,0,0,1-.75-.75V7.21a.69.69,0,0,1,.75-.75h5.73a.69.69,0,0,1,.75.75v.63a.69.69,0,0,1-.75.75h-1.7v12a.67.67,0,0,1-.74.74h-.85A.67.67,0,0,1,37.51,20.59Z"/><path class="cls-1" d="M48.64,20.59v-12h-1.7a.68.68,0,0,1-.74-.75V7.21a.68.68,0,0,1,.74-.75h5.73a.69.69,0,0,1,.75.75v.63a.69.69,0,0,1-.75.75H51v12a.67.67,0,0,1-.74.74h-.85A.67.67,0,0,1,48.64,20.59Z"/><path class="cls-1" d="M54.54,20.59V7.21a.69.69,0,0,1,.75-.75h.85a.69.69,0,0,1,.74.75v5.31h2.51V7.21a.68.68,0,0,1,.74-.75H61a.68.68,0,0,1,.74.75V20.59a.67.67,0,0,1-.74.74h-.85a.67.67,0,0,1-.74-.74V14.64H56.88v5.95a.68.68,0,0,1-.74.74h-.85A.68.68,0,0,1,54.54,20.59Z"/><path class="cls-1" d="M63.46,20.59V7.21a.69.69,0,0,1,.75-.75h4.88a.69.69,0,0,1,.75.75v.63a.69.69,0,0,1-.75.75H65.8v3.93h2.46a.68.68,0,0,1,.75.74v.64a.68.68,0,0,1-.75.74H65.8v4.57h3.29a.68.68,0,0,1,.75.74v.64a.68.68,0,0,1-.75.74H64.21A.68.68,0,0,1,63.46,20.59Z"/><path class="cls-1" d="M74,20.63V20c0-.48.13-.72.38-.72l.39,0c.93,0,1.38-.44,1.38-1.42V7.21a.68.68,0,0,1,.74-.75h.85a.68.68,0,0,1,.74.75v10.6c0,2.44-1.1,3.61-3.4,3.61C74.45,21.42,74,21.33,74,20.63Z"/><path class="cls-1" d="M80,17.81V10c0-2.38,1.26-3.74,3.55-3.74S87.13,7.61,87.13,10v7.82c0,2.38-1.26,3.73-3.55,3.73S80,20.19,80,17.81Zm4.76.15V9.84c0-1.06-.47-1.46-1.21-1.46s-1.21.4-1.21,1.46V18c0,1.06.47,1.46,1.21,1.46S84.79,19,84.79,18Z"/><path class="cls-1" d="M88.61,17.81V7.21a.69.69,0,0,1,.75-.75h.85a.69.69,0,0,1,.74.75V18c0,1.06.45,1.44,1.19,1.44S93.33,19,93.33,18V7.21a.68.68,0,0,1,.74-.75h.77a.69.69,0,0,1,.74.75v10.6c0,2.38-1.19,3.73-3.48,3.73S88.61,20.19,88.61,17.81Z"/><path class="cls-1" d="M97.24,20.59V7.21A.68.68,0,0,1,98,6.46h2.72c2.42,0,3.46,1.13,3.46,3.42v.92c0,1.53-.49,2.5-1.53,2.93v0c1.17.36,1.55,1.47,1.55,3.14v2.62a4.31,4.31,0,0,0,.07,1,1.7,1.7,0,0,1,0,.28c0,.34-.23.53-.64.53h-.93c-.43,0-.77-.19-.81-.64a7.77,7.77,0,0,1-.06-1.18V16.79c0-1.38-.41-1.83-1.47-1.83h-.81v5.63a.67.67,0,0,1-.74.74H98A.67.67,0,0,1,97.24,20.59Zm3.18-7.75c.87,0,1.41-.39,1.41-1.58V10.12c0-1.06-.37-1.53-1.19-1.53H99.57v4.25Z"/><path class="cls-1" d="M105.8,20.59V7.21a.68.68,0,0,1,.74-.75h1.53a.76.76,0,0,1,.83.64l2.1,8.26h0V7.21a.69.69,0,0,1,.75-.75h.59a.69.69,0,0,1,.75.75V20.59a.68.68,0,0,1-.75.74h-1a.75.75,0,0,1-.82-.64l-2.64-10.21h0V20.59a.68.68,0,0,1-.74.74h-.6A.67.67,0,0,1,105.8,20.59Z"/><path class="cls-1" d="M114.87,20.59V7.21a.68.68,0,0,1,.74-.75h4.89a.69.69,0,0,1,.74.75v.63a.69.69,0,0,1-.74.75h-3.3v3.93h2.47a.68.68,0,0,1,.74.74v.64a.68.68,0,0,1-.74.74H117.2v4.57h3.3a.68.68,0,0,1,.74.74v.64a.68.68,0,0,1-.74.74h-4.89A.67.67,0,0,1,114.87,20.59Z"/><path class="cls-1" d="M124.72,20.59V15l-2.59-7.69a.83.83,0,0,1,0-.29c0-.36.23-.56.66-.56h.93a.77.77,0,0,1,.85.62L126,11.92h0l1.44-4.84a.78.78,0,0,1,.85-.62H129c.43,0,.66.2.66.56a.83.83,0,0,1,0,.29L127.06,15v5.59a.68.68,0,0,1-.74.74h-.85A.68.68,0,0,1,124.72,20.59Z"/><path class="cls-1" d="M131.39,16.68l-.25-4V7.21a.68.68,0,0,1,.74-.75h.85a.68.68,0,0,1,.74.75v5.46l-.25,4a.68.68,0,0,1-.77.72h-.29A.68.68,0,0,1,131.39,16.68Zm-.21,3.91v-.77a.68.68,0,0,1,.74-.74h.77a.68.68,0,0,1,.74.74v.77a.67.67,0,0,1-.74.74h-.77A.68.68,0,0,1,131.18,20.59Z"/><path class="cls-1" d="M77.09,37.52l-9.18,9.19-9.19-9.19Z"/></svg>