<svg xmlns="http://www.w3.org/2000/svg" width="3000" height="3000" viewBox="0 0 3000 3000"><defs><style>.cls-1{fill:#d24646;stroke:#d24646;stroke-miterlimit:10;}</style></defs><g id="bær"><path class="cls-1" d="M2319,163.08C1778,683.78,1207.26,1043,737.32,2766.3c-8.55,31.37,5.61,65,25.43,90.8,55.22,71.84,219.91,138,708.4-174.1,624.79-399.21,1273-2126.73,1040-2489.32C2469.21,128.38,2374.92,109.25,2319,163.08Z"/><path class="cls-1" d="M2078.15,131.59c17.75-12.54,10.87-40.36-10.7-43C1872.73,64.45,1220.73,72.63,649.31,1108.69c0,0-378,737.75-117.31,1312.74,9.29,20.49,39.25,17.8,44.71-4C650.3,2123.45,1014.84,882.32,2078.15,131.59Z"/></g></svg>