<svg xmlns="http://www.w3.org/2000/svg" width="3000" height="3000" viewBox="0 0 3000 3000"><defs><style>.cls-1{stroke:#d24646;stroke-miterlimit:10;}</style></defs><g id="bær"><path class="cls-1" d="M933.58,964.93c-215.26,207.2-442.39,350.12-629.39,1035.89-3.4,12.48,2.23,25.87,10.12,36.13,22,28.58,87.51,54.92,281.89-69.28,248.62-158.86,506.55-846.28,413.85-990.57C993.35,951.12,955.84,943.51,933.58,964.93Z"/><path class="cls-1" d="M837.74,952.4a9.46,9.46,0,0,0-4.25-17.13c-77.49-9.59-336.94-6.34-564.32,405.94,0,0-150.42,293.57-46.68,522.37a9.46,9.46,0,0,0,17.79-1.6C269.56,1745,414.62,1251.13,837.74,952.4Z"/><path d="M1215.72,1474.42v-362.2c0-21.27,12.15-33.42,33.42-33.42h65.64c69.28,0,99,32.21,99,97.84v26.13c0,43.76-14,71.71-43.75,83.87v1.21c33.42,10.34,44.36,41.94,44.36,90V1444c0,11.54.61,17.62,2.43,24.91,1.83,6.69,2.43,10.33,2.43,16.41,0,14.59-11.54,22.49-31.6,22.49-27.34,0-40.11-14-40.11-52.27v-81.43c0-39.5-11.54-52.26-41.93-52.26h-23.09v152.53c0,21.27-12.16,33.43-33.43,33.43S1215.72,1495.69,1215.72,1474.42Zm91.16-213.31c24.91,0,40.11-10.93,40.11-45v-32.81c0-30.39-10.33-43.76-34-43.76h-30.38v121.54Z"/><path d="M1455.77,1403.32V1179.68c0-68.06,35.85-107,101.49-107s101.49,38.9,101.49,107v223.64c0,68.06-35.86,107-101.49,107S1455.77,1471.38,1455.77,1403.32Zm136.13,4.25V1175.43c0-30.39-13.37-41.94-34.64-41.94s-34.64,11.55-34.64,41.94v232.14c0,30.39,13.37,41.94,34.64,41.94S1591.9,1438,1591.9,1407.57Z"/><path d="M1688.52,1475a66.74,66.74,0,0,1,1.22-10.94l57.73-345.79c4.86-28,24.31-45.58,52.26-45.58s46.8,17.63,51.66,45.58l57.73,345.79a55.44,55.44,0,0,1,.61,9.72c0,20.67-10.94,34-30.39,34-20,0-31.6-12.77-34.64-32.21l-7.9-55.91v1.21h-79.61l-7.9,55.91c-3,21.27-14.58,31-31.6,31C1701.89,1507.85,1688.52,1497.52,1688.52,1475Zm140.38-111.82-31.6-216.35h-1.21l-31,216.35Z"/><path d="M1932.82,1407c0-19.45,11.55-32.21,31.6-32.21,17.63,0,31.6,9.11,31.6,33.42,0,30.39,13.37,41.33,34.64,41.33s34.64-10.94,34.64-42.54c0-35.25-13.37-57.74-57.12-96-55.91-49.23-74.14-83.87-74.14-132.48,0-66.85,34.64-105.75,99.66-105.75s97.24,41.94,97.24,96.63c0,21.27-11.55,32.21-31.6,32.21-21.27,0-31.61-14-31.61-32.21,0-22.49-12.15-35.86-33.42-35.86s-33.43,11.55-33.43,40.72c0,31,14,53.48,57.74,91.77,55.91,49.22,73.53,83.25,73.53,136.12,0,69.28-35.25,108.18-100.88,108.18S1932.82,1471.38,1932.82,1407Z"/><path d="M2222.7,1474.42V1139.57h-43.15c-19.45,0-30.38-10.94-30.38-30.38s10.93-30.39,30.38-30.39H2332.7c19.44,0,30.38,10.94,30.38,30.39s-10.94,30.38-30.38,30.38h-43.15v334.85c0,21.27-12.16,33.43-33.43,33.43S2222.7,1495.69,2222.7,1474.42Z"/><path d="M2391.64,1470.78V1112.22c0-19.44,14-33.42,33.43-33.42h122.15c17.62,0,30.39,12.76,30.39,30.39s-12.77,30.38-30.39,30.38h-88.73V1252h65c17.62,0,30.38,12.76,30.38,30.38s-12.76,30.39-30.38,30.39h-65v130.66h88.73c17.62,0,30.39,12.76,30.39,30.38s-12.77,30.39-30.39,30.39H2425.07C2405.62,1504.2,2391.64,1490.22,2391.64,1470.78Z"/><path d="M2612.24,1470.78V1112.22c0-19.44,14-33.42,33.43-33.42h68.67c66.84,0,99.66,37.07,99.66,105.14v215.13c0,68.06-32.82,105.13-99.66,105.13h-68.67C2626.22,1504.2,2612.24,1490.22,2612.24,1470.78Zm100.88-27.35c21.27,0,34-10.94,34-41.33V1180.9c0-30.39-12.76-41.33-34-41.33h-34v303.86Z"/><path d="M1215.72,2029.88V1671.33c0-19.45,14-33.43,33.42-33.43h67.46c69.28,0,99.06,32.21,99.06,97.84v17c0,43.75-13.37,71.1-43.15,83.26v1.21c35.86,12.16,49.83,43.76,49.83,88.73v36.46c0,65.63-34.64,100.88-101.48,100.88h-71.72C1229.7,2063.3,1215.72,2049.32,1215.72,2029.88Zm93-218.78c24.92,0,40.11-10.94,40.11-45v-23.7c0-30.39-10.33-43.76-34-43.76h-32.21V1811.1Zm12.16,191.43c22.48,0,34.63-10.33,34.63-41.93v-37.07c0-39.5-12.76-51.66-43.14-51.66h-29.78v130.66Z"/><path d="M1461.23,2029.88V1671.33c0-19.45,14-33.43,33.43-33.43h122.15c17.62,0,30.38,12.76,30.38,30.39s-12.76,30.38-30.38,30.38h-88.73V1811.1h65c17.62,0,30.38,12.76,30.38,30.39s-12.76,30.38-30.38,30.38h-65v130.66h88.73c17.62,0,30.38,12.76,30.38,30.39s-12.76,30.38-30.38,30.38H1494.66C1475.21,2063.3,1461.23,2049.32,1461.23,2029.88Z"/><path d="M1667.85,2034.13a66.86,66.86,0,0,1,1.22-10.94l57.73-345.79c4.86-28,24.31-45.58,52.26-45.58s46.8,17.63,51.66,45.58l57.73,345.79a55.49,55.49,0,0,1,.61,9.73c0,20.66-10.94,34-30.39,34-20.05,0-31.6-12.76-34.64-32.21l-7.9-55.91V1980h-79.61l-7.9,55.91c-3,21.27-14.58,31-31.6,31C1681.22,2067,1667.85,2056.62,1667.85,2034.13Zm140.38-111.82L1776.63,1706h-1.21l-31,216.34Z"/><path d="M1925.52,2037.17V1683.48c0-30.39,17-49.22,43.75-49.22,28.56,0,42.54,17,49.83,44.36l55.31,215.13h1.21V1664c0-18.84,10.94-29.77,29.78-29.77s29.78,10.93,29.78,29.77v364c0,29.17-14.59,38.9-35.25,38.9-23.09,0-34.64-11.55-41.93-39.5l-71.71-275.91h-1.22v285.63c0,18.84-10.94,29.78-29.78,29.78S1925.52,2056,1925.52,2037.17Z"/></g></svg>