<svg xmlns="http://www.w3.org/2000/svg" width="3000" height="3000" viewBox="0 0 3000 3000"><defs><style>.cls-1{fill:#d24646;stroke:#d24646;stroke-miterlimit:10;}.cls-2{fill:#d34646;}</style></defs><g id="bær"><path class="cls-1" d="M2665.78,758C2271.86,1137.13,1856.21,1398.68,1514,2653.62c-6.23,22.84,4.09,47.35,18.51,66.12,40.22,52.31,160.15,100.5,515.86-126.78,455-290.71,927-1548.68,757.34-1812.71C2775.16,732.69,2706.51,718.76,2665.78,758Z"/><path class="cls-1" d="M2490.39,735c12.93-9.13,7.92-29.39-7.78-31.33-141.8-17.56-616.58-11.61-1032.69,742.85,0,0-275.26,537.23-85.43,955.93,6.77,14.93,28.58,13,32.56-2.93C1450.64,2185.5,1716.1,1281.71,2490.39,735Z"/><path class="cls-2" d="M186.07,766.64V372.27c0-23.16,13.23-36.39,36.39-36.39h71.46c75.44,0,107.86,35.07,107.86,106.53v28.45c0,47.65-15.22,78.09-47.64,91.32v1.32c36.39,11.25,48.3,45.66,48.3,97.93v72.13c0,12.57.66,19.19,2.65,27.13,2,7.28,2.65,11.25,2.65,17.86,0,15.89-12.58,24.49-34.41,24.49-29.78,0-43.67-15.22-43.67-56.91V657.46c0-43-12.58-56.9-45.66-56.9H258.85V766.64c0,23.16-13.23,36.4-36.39,36.4S186.07,789.8,186.07,766.64Zm99.25-232.25c27.13,0,43.67-11.91,43.67-49V449.69c0-33.08-11.24-47.64-37.05-47.64H258.85V534.39Z"/><path class="cls-2" d="M447.44,689.23V445.72c0-74.11,39-116.46,110.5-116.46s110.51,42.35,110.51,116.46V689.23c0,74.11-39,116.45-110.51,116.45S447.44,763.34,447.44,689.23Zm148.22,4.63V441.09c0-33.09-14.56-45.66-37.72-45.66S520.23,408,520.23,441.09V693.86c0,33.08,14.55,45.65,37.71,45.65S595.66,726.94,595.66,693.86Z"/><path class="cls-2" d="M700.87,767.31a73.33,73.33,0,0,1,1.32-11.92l62.86-376.5c5.3-30.44,26.47-49.63,56.91-49.63s50.95,19.19,56.24,49.63l62.86,376.5a59.89,59.89,0,0,1,.67,10.59c0,22.5-11.91,37.06-33.09,37.06-21.83,0-34.41-13.9-37.72-35.07l-8.6-60.88v1.32H775.64L767,769.29C763.73,792.45,751.16,803,732.63,803,715.43,803,700.87,791.79,700.87,767.31ZM853.72,645.55,819.31,410H818L784.24,645.55Z"/><path class="cls-2" d="M966.87,693.2c0-21.18,12.57-35.07,34.41-35.07,19.19,0,34.41,9.92,34.41,36.39,0,33.08,14.55,45,37.71,45s37.72-11.91,37.72-46.31c0-38.38-14.56-62.87-62.2-104.55-60.88-53.6-80.73-91.32-80.73-144.25,0-72.79,37.72-115.14,108.52-115.14s105.87,45.66,105.87,105.21c0,23.16-12.57,35.07-34.41,35.07-23.16,0-34.4-15.22-34.4-35.07,0-24.48-13.24-39-36.4-39S1041,408,1041,439.77c0,33.74,15.22,58.22,62.86,99.91,60.88,53.6,80.07,90.65,80.07,148.22,0,75.44-38.38,117.78-109.85,117.78S966.87,763.34,966.87,693.2Z"/><path class="cls-2" d="M1282.5,766.64V402.05h-47c-21.18,0-33.09-11.91-33.09-33.09s11.91-33.08,33.09-33.08h166.74c21.18,0,33.09,11.91,33.09,33.08s-11.91,33.09-33.09,33.09h-47V766.64c0,23.16-13.23,36.4-36.39,36.4S1282.5,789.8,1282.5,766.64Z"/><path class="cls-2" d="M1466.45,762.67V372.27c0-21.17,15.22-36.39,36.39-36.39h133c19.19,0,33.09,13.89,33.09,33.08s-13.9,33.09-33.09,33.09h-96.6V524.46H1610c19.19,0,33.08,13.9,33.08,33.09s-13.89,33.08-33.08,33.08h-70.8V732.9h96.6c19.19,0,33.09,13.89,33.09,33.08s-13.9,33.09-33.09,33.09h-133C1481.67,799.07,1466.45,783.85,1466.45,762.67Z"/><path class="cls-2" d="M1706.64,762.67V372.27c0-21.17,15.22-36.39,36.39-36.39h74.78c72.78,0,108.51,40.36,108.51,114.47V684.59c0,74.11-35.73,114.48-108.51,114.48H1743C1721.86,799.07,1706.64,783.85,1706.64,762.67Zm109.84-29.77c23.16,0,37.06-11.91,37.06-45V447c0-33.08-13.9-45-37.06-45h-37V732.9Z"/><path class="cls-2" d="M186.07,1371.44V981c0-21.18,15.22-36.4,36.39-36.4h73.45c75.43,0,107.86,35.07,107.86,106.54v18.52c0,47.65-14.56,77.42-47,90.66v1.32c39,13.23,54.25,47.64,54.25,96.61V1298c0,71.46-37.71,109.84-110.5,109.84H222.46C201.29,1407.83,186.07,1392.61,186.07,1371.44Zm101.24-238.21c27.13,0,43.67-11.91,43.67-49v-25.8c0-33.09-11.25-47.65-37.06-47.65H258.85v122.42Zm13.23,208.43c24.48,0,37.72-11.25,37.72-45.65v-40.37c0-43-13.9-56.24-47-56.24H258.85v142.26Z"/><path class="cls-2" d="M453.39,1371.44V981c0-21.18,15.22-36.4,36.39-36.4h133c19.19,0,33.09,13.9,33.09,33.09s-13.9,33.08-33.09,33.08h-96.6v122.42H597c19.19,0,33.08,13.89,33.08,33.08S616.17,1199.4,597,1199.4h-70.8v142.26h96.6c19.19,0,33.09,13.9,33.09,33.09s-13.9,33.08-33.09,33.08h-133C468.61,1407.83,453.39,1392.61,453.39,1371.44Z"/><path class="cls-2" d="M678.36,1376.07a72,72,0,0,1,1.33-11.91l62.86-376.51C747.84,957.22,769,938,799.45,938s50.95,19.19,56.25,49.62l62.86,376.51a60.73,60.73,0,0,1,.66,10.59c0,22.5-11.91,37-33.08,37-21.84,0-34.41-13.89-37.72-35.07l-8.6-60.87v1.32H753.13l-8.6,60.88c-3.31,23.16-15.88,33.74-34.41,33.74C692.92,1411.8,678.36,1400.55,678.36,1376.07Zm152.85-121.75-34.4-235.57h-1.33l-33.74,235.57Z"/><path class="cls-2" d="M958.91,1379.38V994.27c0-33.08,18.53-53.6,47.65-53.6,31.1,0,46.32,18.53,54.26,48.31L1121,1223.22h1.32V973.1c0-20.52,11.91-32.43,32.43-32.43s32.42,11.91,32.42,32.43v396.35c0,31.77-15.88,42.35-38.38,42.35-25.14,0-37.71-12.57-45.66-43l-78.08-300.41h-1.32v311c0,20.51-11.91,32.42-32.42,32.42S958.91,1399.89,958.91,1379.38Z"/></g></svg>